<svg xmlns="http://www.w3.org/2000/svg" width="57" height="57" viewBox="0 0 57 57">
    <defs>
        <style>
            .cls-1{fill:#707070}.cls-2{fill:#6aaa42}.cls-3{fill:#fff}.cls-4{fill:#0a7a35;opacity:.798}
        </style>
    </defs>    
    <g id="Agrupar_670" data-name="Agrupar 670" transform="translate(-306.998 -1196)">
        <!--
        <g id="Agrupar_636" data-name="Agrupar 636" transform="translate(261.366 -118.135)">
            <g id="Agrupar_228" data-name="Agrupar 228" transform="translate(182.632 1315.135)">
                <path id="Caminho_1040" d="M1934.452 6477.767a27.074 27.074 0 1 0 27.074 27.075 27.074 27.074 0 0 0-27.074-27.075zm5.463 39.017l-4.493-7.513-4.492 7.513h-8.764l8.212-12.594-7.659-11.968h8.727l3.977 7 3.9-7h8.8l-7.66 11.931 8.212 12.631z" class="cls-1" data-name="Caminho 1040" transform="translate(-1907.378 -6477.767)"/>
            </g>
        </g>
        <ellipse id="Elipse_54" cx="27" cy="28.5" class="cls-2" data-name="Elipse 54" rx="27" ry="28.5" transform="translate(376.999 1196)"/>
        
        <g id="Agrupar_585" data-name="Agrupar 585" transform="translate(-111.001 1001.533)">
            <path id="Caminho_572" d="M12965.685 6480.634l.026-.024a3.8 3.8 0 0 1 .173-.312.437.437 0 0 0 0-.05 2.417 2.417 0 0 1 .043-.544c-.287-1.256-.574-2.517-.883-3.765a1.976 1.976 0 0 1 .3-1.673 12.3 12.3 0 0 0-1.069-15.053 13.337 13.337 0 0 0-17.454-2.1 11.922 11.922 0 0 0-5.448 12.072 12.114 12.114 0 0 0 7.5 9.744 13.218 13.218 0 0 0 10.6.154 2.158 2.158 0 0 1 1.611-.01q2.027.767 4.051 1.524a3.028 3.028 0 0 1 .517.081.145.145 0 0 1 .033-.044z" class="cls-3" data-name="Caminho 572" transform="translate(-12437.053 -6247.312)"/>
            <path id="Caminho_573" d="M12930.7 6508.391a12.175 12.175 0 0 1-3.989-11.767.714.714 0 0 0-.118.068 10.376 10.376 0 0 0-3.321 9.865 10.13 10.13 0 0 0 1.561 3.808 1.536 1.536 0 0 1 .326 1.168c-.16.813-.316 1.626-.475 2.44-.066.339-.131.681-.2 1.028a.331.331 0 0 0 0 .061 2.335 2.335 0 0 1-.01.331 2.773 2.773 0 0 1 .165.246l.067.03a2.8 2.8 0 0 1 .362-.027 3.212 3.212 0 0 1 .336.019c.933-.36 1.842-.715 2.742-1.092a2.518 2.518 0 0 1 1.965-.04 11.281 11.281 0 0 0 10-.834 10.374 10.374 0 0 0 2.751-2.311 13.187 13.187 0 0 1-12.162-2.993z" class="cls-3" data-name="Caminho 573" transform="translate(-12424.075 -6277.214)"/>
        </g>-->
        
        <g id="Agrupar_669" data-name="Agrupar 669" transform="translate(-135)">
            <ellipse id="Elipse_55" cx="27" cy="28.5" class="cls-4" data-name="Elipse 55" rx="27" ry="28.5" transform="translate(441.999 1196)"/>
            <path id="Caminho_3599" d="M23.861 6.974a2.455 2.455 0 0 0-2.437 1.667l-3.408 10.107H7.454a2.455 2.455 0 0 0-1.473 4.418l8.486 6.364L11.4 39.664a2.455 2.455 0 0 0 3.755 2.722l8.591-6 8.591 6a2.455 2.455 0 0 0 3.763-2.722l-3.067-10.133 8.486-6.364a2.455 2.455 0 0 0-1.473-4.418H29.484L26.076 8.642a2.455 2.455 0 0 0-2.215-1.668z" class="cls-3" data-name="Caminho 3599" transform="translate(446 1199.228)"/>
        </g>-
    </g>
</svg>
